<svg width="306" height="31" viewBox="0 0 306 31" fill="none" xmlns="http://www.w3.org/2000/svg">
<path d="M0.875 15.6875V0.6875H8.84375V4.125H4.6875V15.6875H0.875ZM24.4688 3.6875C28.2188 3.6875 30.6562 7.53125 30.6875 13.75C30.6562 19.9688 28.2188 23.875 24.4688 23.8438C20.7812 23.875 18.375 19.9688 18.375 13.75C18.375 7.53125 20.7812 3.6875 24.4688 3.6875ZM24.4688 6.96875C22.6875 6.9375 21.5625 9.34375 21.5938 13.75C21.5625 18.1562 22.6875 20.5625 24.4688 20.5312C26.3438 20.5625 27.4688 18.1562 27.4688 13.75C27.4688 9.34375 26.3438 6.9375 24.4688 6.96875ZM42.4688 1.53125V29.7812H39.125V15.3125H36.125V28.4062H32.8438V2.03125H36.125V12.4375H39.125V1.53125H42.4688ZM69.125 2.34375V4.96875H65.25V9.25H68.9688V11.875H48.2188V9.25H51.9375V4.96875H48.0625V2.34375H69.125ZM71.5 13.6562V16.4062H45.75V13.6562H71.5ZM68.2812 18.3125V25.0312H52.2188V26.9375H69.0625V29.5312H48.8125V22.625H64.875V20.8438H48.7812V18.3125H68.2812ZM55.4062 9.25H61.75V4.96875H55.4062V9.25ZM103.125 1.53125V12.7812H107.469V15.6562H103.125V29.7812H99.6875V1.53125H103.125ZM97.5 5.875V8.65625H80.8438V5.875H87.5312V1.9375H91V5.875H97.5ZM89.2812 10.5C93.3438 10.5 96.375 13.25 96.375 17.1562C96.375 21.0625 93.3438 23.7812 89.2812 23.7812C85.1562 23.7812 82.125 21.0625 82.1562 17.1562C82.125 13.25 85.1562 10.5 89.2812 10.5ZM89.2812 13.3438C87.0625 13.3438 85.4688 14.8438 85.4688 17.1562C85.4688 19.4688 87.0625 20.9375 89.2812 20.9062C91.4375 20.9375 93.0312 19.4688 93.0625 17.1562C93.0312 14.8438 91.4375 13.3438 89.2812 13.3438ZM132.156 1.53125V29.8125H128.656V1.53125H132.156ZM116.938 3.59375C121.188 3.59375 124.281 7.46875 124.312 13.5625C124.281 19.7188 121.188 23.5625 116.938 23.5625C112.656 23.5625 109.562 19.7188 109.562 13.5625C109.562 7.46875 112.656 3.59375 116.938 3.59375ZM116.938 6.71875C114.531 6.71875 112.906 9.25 112.906 13.5625C112.906 17.9062 114.531 20.4375 116.938 20.4375C119.312 20.4375 120.938 17.9062 120.938 13.5625C120.938 9.25 119.312 6.71875 116.938 6.71875ZM160.469 1.5625V22.5312H157.156V12.5625H154.219V21.875H150.969V2.09375H154.219V9.71875H157.156V1.5625H160.469ZM161.25 26.4062V29.2188H141.562V20.5625H145.031V26.4062H161.25ZM148.219 3.875V12.4375H140.875V15.7812C144.156 15.75 146.656 15.5781 149.531 15.0312L149.844 17.8125C146.438 18.4062 143.562 18.5312 139.438 18.5312H137.5V9.8125H144.875V6.625H137.469V3.875H148.219ZM186.906 14.7812V17.5625H167.094V4H186.688V6.8125H170.531V14.7812H186.906ZM189.781 23.3125V26.1875H163.969V23.3125H189.781ZM206.969 15.6875V30.6875H199V27.25H203.156V15.6875H206.969ZM249.875 1.53125V29.8125H246.375V1.53125H249.875ZM234.656 3.59375C238.906 3.59375 242 7.46875 242.031 13.5625C242 19.7188 238.906 23.5625 234.656 23.5625C230.375 23.5625 227.281 19.7188 227.281 13.5625C227.281 7.46875 230.375 3.59375 234.656 3.59375ZM234.656 6.71875C232.25 6.71875 230.625 9.25 230.625 13.5625C230.625 17.9062 232.25 20.4375 234.656 20.4375C237.031 20.4375 238.656 17.9062 238.656 13.5625C238.656 9.25 237.031 6.71875 234.656 6.71875ZM261.625 3.59375C265.875 3.59375 268.938 7.46875 268.969 13.5625C268.938 19.7188 265.875 23.5625 261.625 23.5625C257.344 23.5625 254.25 19.7188 254.281 13.5625C254.25 7.46875 257.344 3.59375 261.625 3.59375ZM261.625 6.71875C259.25 6.71875 257.625 9.25 257.625 13.5625C257.625 17.9062 259.25 20.4375 261.625 20.4375C264.031 20.4375 265.625 17.9062 265.625 13.5625C265.625 9.25 264.031 6.71875 261.625 6.71875ZM280.344 8.28125V11.1875H276.156V16.625H280.344V19.4688H276.156V29.7812H272.688V1.53125H276.156V8.28125H280.344ZM305.281 1.53125V29.7812H301.781V1.53125H305.281ZM296.844 4.53125C296.844 12.9375 293.594 20.0938 283.688 24.7812L281.875 22C289.266 18.4844 292.703 13.7031 293.312 7.28125H283.312V4.53125H296.844Z" fill="#30180B"/>
</svg>
