<svg width="460" height="132" viewBox="0 0 460 132" fill="none" xmlns="http://www.w3.org/2000/svg">
<path d="M44.6055 37.1406L48.543 24.0156H52.9961L50.5586 37.1406H44.6055ZM54.4961 37.1406L58.4336 24.0156H62.8867L60.4492 37.1406H54.4961ZM93.6719 35.8516V53.8438H91.0742V44.6562H86.2891C85.7285 47.6094 83.1992 49.6055 80.0273 49.6055C76.3359 49.6055 73.6016 47.0625 73.6016 43.4805C73.6016 39.8984 76.3359 37.3828 80.0273 37.3828C83.2812 37.3828 85.8516 39.4609 86.3438 42.5234H91.0742V35.8516H93.6719ZM94.3281 57.6992V59.8047H77.7578V52.0117H80.3555V57.6992H94.3281ZM80.0273 39.6523C77.7578 39.6523 76.0898 41.1836 76.0898 43.4805C76.0898 45.7773 77.7578 47.3633 80.0273 47.3633C82.2422 47.3633 83.9102 45.7773 83.9102 43.4805C83.9102 41.1836 82.2422 39.6523 80.0273 39.6523ZM118.473 35.8242V60.3242H115.984V35.8242H118.473ZM113.496 36.3438V59.0938H111.035V46.625H107.234V44.4922H111.035V36.3438H113.496ZM104.828 42.6602C104.828 46.8438 106.523 51.0273 109.969 53.0234L108.41 54.9375C106.072 53.543 104.459 51.0684 103.625 48.1016C102.736 51.3008 101.068 54.0215 98.6758 55.5117L97.0898 53.5703C100.562 51.4648 102.34 47.0078 102.34 42.6602V40.6914H97.8281V38.5859H109.039V40.6914H104.828V42.6602ZM144.531 45.4492V47.582H140.73V60.2969H138.133V35.8242H140.73V45.4492H144.531ZM125.145 38.2031V51.9844C128.562 51.9844 132.131 51.6973 136.027 50.8906L136.328 53.0781C132.145 53.9258 128.262 54.1445 124.598 54.1445H122.574V38.2031H125.145ZM173.023 37.793V40.1445C173.023 43.2617 173.023 46.7617 172.012 52.0391L168.512 51.6836C169.455 46.9805 169.496 43.4805 169.523 40.5547H154.867V37.793H173.023ZM175.211 54.6367V57.4805H152.516V54.6367H160.637V46.0781H164.109V54.6367H175.211ZM198.098 35.6602V50.2344H194.789V44.2188H192.547V50.125H189.266V36.0977H192.547V41.375H194.789V35.6602H198.098ZM198.098 51.1914V60.5156H194.625V54.0078H180.734V51.1914H198.098ZM187.57 37.3555C187.57 43.6172 184.562 47.8281 178.082 50.3984L176.441 47.8008C181.131 46.0781 183.482 43.5078 184.016 40.1445H177.645V37.3555H187.57ZM221.723 35.6328V49.6055H218.25V35.6328H221.723ZM205.836 37.0547V45.4492C209.609 45.4219 212.809 45.1484 216.145 44.4375L216.555 47.2539C212.672 48.0742 208.953 48.375 204.496 48.375H202.336V37.0547H205.836ZM221.723 50.6172V60.2148H205.098V50.6172H221.723ZM208.516 53.3516V57.4805H218.305V53.3516H208.516ZM233.18 37.3008C237.117 37.2734 240.07 39.8438 240.07 43.3984C240.07 46.9805 237.117 49.5234 233.18 49.5234C229.242 49.5234 226.262 46.9805 226.262 43.3984C226.262 39.8438 229.242 37.2734 233.18 37.3008ZM233.18 40.3086C231.211 40.3086 229.707 41.457 229.734 43.3984C229.707 45.3672 231.211 46.4883 233.18 46.4883C235.148 46.4883 236.652 45.3672 236.68 43.3984C236.652 41.457 235.176 40.3086 233.18 40.3086ZM246.031 35.6328V60.5703H242.559V35.6328H246.031ZM225.223 52.6406C229.652 52.668 235.805 52.5859 241.137 51.8477L241.41 54.3633C235.887 55.4297 229.98 55.4844 225.633 55.4844L225.223 52.6406ZM277.148 35.6328V51.2461H273.84V44.6289H271.844V50.4258H268.59V36.0977H271.844V41.7852H273.84V35.6328H277.148ZM267.852 38.2031V40.9102H255.629V38.2031H260.031V35.8516H263.504V38.2031H267.852ZM261.781 41.7305C264.953 41.7305 267.195 43.4805 267.223 46.0781C267.195 48.6484 264.953 50.3984 261.781 50.3984C258.664 50.3984 256.395 48.6484 256.395 46.0781C256.395 43.4805 258.664 41.7305 261.781 41.7305ZM261.781 44.2461C260.414 44.2461 259.512 44.9297 259.512 46.0781C259.512 47.2266 260.414 47.9375 261.781 47.9102C263.148 47.9375 264.051 47.2266 264.078 46.0781C264.051 44.9297 263.148 44.2461 261.781 44.2461ZM268.645 51.4648C274.031 51.4648 277.258 53.1055 277.285 56.0039C277.258 58.875 274.031 60.5156 268.645 60.5156C263.285 60.5156 260.031 58.875 260.031 56.0039C260.031 53.1055 263.285 51.4648 268.645 51.4648ZM268.645 54.0898C265.281 54.0898 263.504 54.6914 263.531 56.0039C263.504 57.2617 265.281 57.8906 268.645 57.8906C272.035 57.8906 273.758 57.2617 273.758 56.0039C273.758 54.6914 272.035 54.0898 268.645 54.0898ZM302.66 47.9648V50.7812H279.965V47.9648H289.535V45.8594H282.863V36.2344H286.309V38.5039H296.289V36.2344H299.762V45.8594H293.035V47.9648H302.66ZM299.898 52.4766V60.5156H296.426V55.2383H282.48V52.4766H299.898ZM286.309 43.125H296.289V41.0742H286.309V43.125ZM326.723 47.0625V49.0586H304.301V47.0625H326.723ZM323.961 50.7812V56.168H309.578V58.1914H324.727V60.0234H306.98V54.4453H321.391V52.6406H306.953V50.7812H323.961ZM323.906 36.4531V41.7578H309.742V43.6172H324.316V45.4492H307.172V40.0352H321.309V38.2852H307.117V36.4531H323.906ZM343.402 36.9453C347.094 36.9453 349.773 38.9961 349.773 42.0312C349.773 45.0391 347.094 47.1172 343.402 47.0898C339.711 47.1172 337.086 45.0391 337.086 42.0312C337.086 38.9961 339.711 36.9453 343.402 36.9453ZM343.402 39.0508C341.188 39.0508 339.574 40.2266 339.602 42.0312C339.574 43.8086 341.188 44.9844 343.402 44.957C345.672 44.9844 347.285 43.8086 347.285 42.0312C347.285 40.2266 345.672 39.0508 343.402 39.0508ZM355.734 35.8516V60.3242H353.164V35.8516H355.734ZM335.336 49.0039C339.848 49.0039 346.109 48.8945 351.469 48.1016L351.66 50.043C349.432 50.4668 347.107 50.7266 344.852 50.8906V59.5586H342.254V51.0273C339.875 51.1367 337.633 51.1504 335.691 51.1641L335.336 49.0039ZM371.676 39.8711V41.9766H359.508V39.8711H364.32V36.5352H366.891V39.8711H371.676ZM365.605 43.4531C368.723 43.4531 370.91 45.7773 370.938 49.0859C370.91 52.4219 368.723 54.7734 365.605 54.7734C362.543 54.7734 360.273 52.4219 360.301 49.0859C360.273 45.7773 362.543 43.4531 365.605 43.4531ZM365.605 45.6133C363.828 45.6133 362.598 47.0625 362.598 49.0859C362.598 51.1641 363.828 52.5586 365.605 52.5586C367.355 52.5586 368.641 51.1641 368.641 49.0859C368.641 47.0625 367.355 45.6133 365.605 45.6133ZM380.535 35.8242V60.3242H378.074V48.1562H375.258V59.1758H372.797V36.3711H375.258V46.0234H378.074V35.8242H380.535ZM29.3438 96.3516V99.168H22.1797V104.883H31.832V107.672H9.05469V104.883H18.6523V99.168H11.5977V87.5469H15.1797V96.3516H29.3438ZM45.2031 87.082V94.8477H37.6836V97.5C41.3887 97.5 43.5762 97.377 46.1055 96.8984L46.4336 99.6875C43.5352 100.207 40.9102 100.289 36.0977 100.289H34.2383V92.25H41.7031V89.8164H34.1836V87.082H45.2031ZM54.2266 85.6602V100.973H50.7539V97.1445H46.625V94.3828H50.7539V91.8672H46.625V89.1055H50.7539V85.6602H54.2266ZM54.2266 102.094V110.516H50.7539V104.883H37.082V102.094H54.2266ZM77.0859 85.6328V95.3672H80.75V98.2383H77.0859V110.516H73.6406V85.6328H77.0859ZM71.9453 89.3516V92.1406H57.3164V89.3516H62.9492V86.0156H66.4492V89.3516H71.9453ZM64.6992 93.5352C68.3359 93.5352 71.043 95.9961 71.043 99.4688C71.043 102.941 68.3359 105.402 64.6992 105.402C61.0352 105.402 58.3281 102.941 58.3281 99.4688C58.3281 95.9961 61.0352 93.5352 64.6992 93.5352ZM64.6992 96.3516C62.9492 96.3789 61.6641 97.5547 61.6641 99.4688C61.6641 101.41 62.9492 102.559 64.6992 102.531C66.4492 102.559 67.707 101.41 67.707 99.4688C67.707 97.5547 66.4492 96.3789 64.6992 96.3516ZM101.859 92.4141V95.1484H84.4688V86.5078H87.9414V92.4141H101.859ZM104.402 97.8281V100.562H81.625V97.8281H104.402ZM102.023 107.18V109.969H84.25V102.586H87.75V107.18H102.023ZM117.938 87.4102C121.246 87.4102 123.406 90.8281 123.434 96.4062C123.406 102.012 121.246 105.457 117.938 105.457C114.656 105.457 112.523 102.012 112.523 96.4062C112.523 90.8281 114.656 87.4102 117.938 87.4102ZM117.938 90.6914C116.543 90.6914 115.723 92.6055 115.75 96.4062C115.723 100.234 116.543 102.121 117.938 102.094C119.359 102.121 120.207 100.234 120.207 96.4062C120.207 92.6055 119.359 90.6914 117.938 90.6914ZM133.879 85.6328V110.516H130.543V97.9648H128.301V109.367H124.992V85.9883H128.301V95.1211H130.543V85.6328H133.879ZM157.176 86.3164V88.9141H153.922V92.1953H157.012V94.793H138.664V92.1953H141.727V88.9141H138.5V86.3164H157.176ZM159.199 96.1055V98.8398H136.504V96.1055H159.199ZM156.438 100.262V106.414H142.574V107.781H157.094V110.352H139.156V104.035H152.992V102.777H139.129V100.262H156.438ZM145.227 92.1953H150.422V88.9141H145.227V92.1953ZM186.789 85.6328V95.3672H190.453V98.2383H186.789V110.516H183.344V85.6328H186.789ZM181.648 89.3516V92.1406H167.02V89.3516H172.652V86.0156H176.152V89.3516H181.648ZM174.402 93.5352C178.039 93.5352 180.746 95.9961 180.746 99.4688C180.746 102.941 178.039 105.402 174.402 105.402C170.738 105.402 168.031 102.941 168.031 99.4688C168.031 95.9961 170.738 93.5352 174.402 93.5352ZM174.402 96.3516C172.652 96.3789 171.367 97.5547 171.367 99.4688C171.367 101.41 172.652 102.559 174.402 102.531C176.152 102.559 177.41 101.41 177.41 99.4688C177.41 97.5547 176.152 96.3789 174.402 96.3516ZM212.191 85.6328V110.57H208.664V85.6328H212.191ZM198.684 87.3828C202.43 87.3828 205.219 90.8281 205.219 96.2422C205.219 101.711 202.43 105.129 198.684 105.129C194.855 105.129 192.066 101.711 192.094 96.2422C192.066 90.8281 194.855 87.3828 198.684 87.3828ZM198.684 90.5273C196.742 90.5273 195.457 92.5508 195.457 96.2422C195.457 99.9609 196.742 101.957 198.684 101.957C200.57 101.957 201.855 99.9609 201.855 96.2422C201.855 92.5508 200.57 90.5273 198.684 90.5273ZM236.938 85.6602V104.117H233.629V95.5312H231.469V103.598H228.215V86.0977H231.469V92.7148H233.629V85.6602H236.938ZM237.566 107.289V110.078H220.066V102.367H223.566V107.289H237.566ZM226.027 87.6562V95.3945H219.93V97.9375C222.65 97.9238 224.674 97.8008 227.039 97.3359L227.34 100.098C224.441 100.617 221.98 100.699 218.289 100.699H216.566V92.8242H222.664V90.3906H216.539V87.6562H226.027ZM260.043 97.1445V99.9336H242.434V87.7109H259.852V90.5273H245.879V97.1445H260.043ZM262.531 104.609V107.48H239.754V104.609H262.531ZM283.203 85.8242V95.5859H287.004V97.7461H283.203V110.297H280.605V85.8242H283.203ZM276.805 88.3945C276.777 95.4766 273.66 101.793 265.594 105.785L264.145 103.762C270.283 100.699 273.619 96.2695 274.152 90.5547H265.375V88.3945H276.805ZM309.754 96.1875V98.3203H304.586V102.859C306.855 102.75 309.139 102.6 311.285 102.367L311.477 104.281C306.09 105.102 300.266 105.156 295.617 105.184L295.289 103.023C297.354 103.023 299.637 103.01 301.988 102.941V98.3203H297.066V88.0938H309.645V90.1992H299.637V96.1875H309.754ZM315.414 85.8242V110.379H312.816V85.8242H315.414ZM330.207 87.6016C330.207 89.4199 329.906 91.0879 329.332 92.6055H332.805V86.3438H335.266V99.5508H332.805V94.7109H328.238C326.68 97.1309 324.205 99.0586 320.828 100.48L319.516 98.5391C324.369 96.6113 327.049 93.6035 327.527 89.707H320.637V87.6016H330.207ZM340.242 85.8516V99.9336H337.781V85.8516H340.242ZM328.074 102.203C328.047 104.322 329.1 106.537 331.328 107.891C333.557 106.414 334.637 104.035 334.664 102.203V100.727H337.18V102.203C337.18 104.746 338.875 107.262 342.047 108.301L340.789 110.215C338.355 109.354 336.715 107.713 335.867 105.676C335.088 107.645 333.639 109.463 331.355 110.406C329.018 109.518 327.555 107.754 326.816 105.73C325.928 107.699 324.301 109.34 322.004 110.215L320.691 108.301C323.836 107.18 325.586 104.582 325.586 102.203V100.727H328.074V102.203ZM348.883 100.508V103.105H360.395V100.508H362.992V110.023H346.312V100.508H348.883ZM348.883 107.945H360.395V105.129H348.883V107.945ZM365.891 96.8164V98.9766H343.551V96.8164H365.891ZM356.047 87.1367C356.047 89.9531 359.957 92.6875 364.66 93.2617L363.73 95.3125C359.752 94.752 356.293 92.8789 354.734 90.2812C353.135 92.8926 349.662 94.752 345.738 95.3125L344.754 93.2617C349.512 92.6602 353.395 90.0352 353.395 87.1367V86.0977H356.047V87.1367ZM388.094 85.8242V110.324H385.496V85.8242H388.094ZM371.824 88.2031V101.848C375.393 101.82 379.152 101.533 383.09 100.727L383.445 102.914C379.098 103.789 375.16 104.09 371.305 104.09H369.254V88.2031H371.824ZM411.035 85.8242V95.3125H414.973V97.4453H411.035V110.379H408.438V85.8242H411.035ZM404.445 88.1758V90.2812H395.586V102.121C399.701 102.107 402.791 101.93 406.277 101.301L406.605 103.488C402.777 104.172 399.523 104.309 394.957 104.281H392.988V88.1758H404.445ZM418.938 108.191C417.871 108.191 416.969 107.316 416.996 106.25C416.969 105.184 417.871 104.309 418.938 104.309C419.977 104.309 420.879 105.184 420.879 106.25C420.879 107.316 419.977 108.191 418.938 108.191ZM450.23 74.1094L446.293 87.2344H441.84L444.277 74.1094H450.23ZM440.34 74.1094L436.402 87.2344H431.949L434.387 74.1094H440.34Z" fill="#30180B"/>
</svg>
