<svg width="532" height="26" viewBox="0 0 532 26" fill="none" xmlns="http://www.w3.org/2000/svg">
<path d="M0.287109 10.938L2.47461 3.39111H4.79883L3.34961 10.938H0.287109ZM5.7832 10.938L7.9707 3.39111H10.2949L8.8457 10.938H5.7832ZM25.3613 3.0083C28.5879 2.98096 30.6934 6.31689 30.6934 11.6216C30.6934 16.9263 28.5879 20.2896 25.3613 20.2622C22.1621 20.2896 20.084 16.9263 20.084 11.6216C20.084 6.31689 22.1621 2.98096 25.3613 3.0083ZM25.3613 5.44189C23.584 5.44189 22.4902 7.71143 22.4902 11.6216C22.4902 15.5317 23.584 17.8013 25.3613 17.8013C27.166 17.8013 28.2871 15.5317 28.2871 11.6216C28.2871 7.71143 27.166 5.44189 25.3613 5.44189ZM40.8926 1.03955V25.5396H38.4043V12.77H35.3691V24.3364H32.9082V1.50439H35.3691V10.6372H38.4043V1.03955H40.8926ZM64.2441 1.77783V3.74658H60.6895V7.98486H64.1348V9.98096H46.1699V7.98486H49.6426V3.74658H46.0605V1.77783H64.2441ZM66.3496 11.7856V13.8364H44.0098V11.7856H66.3496ZM63.5332 15.7505V21.356H49.2598V23.3247H64.2168V25.2935H46.7168V19.5239H60.9629V17.6919H46.6895V15.7505H63.5332ZM52.2129 7.98486H58.0918V3.74658H52.2129V7.98486ZM94.1309 1.03955V10.9653H98.0684V13.1255H94.1309V25.5396H91.5605V1.03955H94.1309ZM89.4277 4.86768V7.00049H74.9082V4.86768H80.9512V1.36768H83.5488V4.86768H89.4277ZM82.2637 8.80518C85.7637 8.80518 88.334 11.1567 88.3613 14.4927C88.334 17.856 85.7637 20.1802 82.2637 20.2075C78.7363 20.1802 76.166 17.856 76.166 14.4927C76.166 11.1567 78.7363 8.80518 82.2637 8.80518ZM82.2637 10.938C80.1855 10.938 78.627 12.3872 78.6543 14.4927C78.627 16.6255 80.1855 18.0474 82.2637 18.02C84.3418 18.0474 85.873 16.6255 85.873 14.4927C85.873 12.3872 84.3418 10.938 82.2637 10.938ZM119.533 1.03955V25.5942H116.936V1.03955H119.533ZM106.436 2.87158C110.072 2.87158 112.752 6.20752 112.752 11.4575C112.752 16.7349 110.072 20.0708 106.436 20.0708C102.744 20.0708 100.092 16.7349 100.092 11.4575C100.092 6.20752 102.744 2.87158 106.436 2.87158ZM106.436 5.1958C104.166 5.1958 102.607 7.60205 102.607 11.4575C102.607 15.3403 104.166 17.7466 106.436 17.7466C108.678 17.7466 110.236 15.3403 110.236 11.4575C110.236 7.60205 108.678 5.1958 106.436 5.1958ZM144.334 1.06689V19.2778H141.873V10.3911H138.865V18.6216H136.432V1.50439H138.865V8.2583H141.873V1.06689H144.334ZM145.045 22.9146V25.02H128.092V17.5825H130.662V22.9146H145.045ZM133.779 3.11768V10.3091H127.053V13.6177C130.088 13.6177 132.398 13.4536 135.092 12.9341L135.365 15.0122C132.275 15.5864 129.732 15.6958 126.15 15.6958H124.537V8.34033H131.291V5.1958H124.482V3.11768H133.779ZM167.494 12.6606V14.7935H150.432V3.22705H167.275V5.35986H153.002V12.6606H167.494ZM170.064 20.1528V22.313H147.643V20.1528H170.064ZM191.666 8.20361V10.2817H174.795V1.91455H177.365V8.20361H191.666ZM194.236 13.3716V15.4497H171.814V13.3716H194.236ZM191.83 22.8325V24.9653H174.604V17.7739H177.201V22.8325H191.83ZM223.303 1.06689V19.1138H220.705V10.6099H215.619V8.44971H220.705V1.06689H223.303ZM215.783 2.89893C215.756 9.29736 211.354 14.1099 204.326 16.3794L203.232 14.3013C208.688 12.5376 212.393 9.20166 212.939 5.05908H204.49V2.89893H215.783ZM223.932 22.9146V25.02H207.525V17.2544H210.15V22.9146H223.932ZM246.326 1.03955V7.21924H249.881V9.32471H246.326V15.5864H243.729V1.03955H246.326ZM239.6 2.78955C239.6 9.1333 235.307 13.6997 228.115 15.7778L227.049 13.6724C232.777 12.0454 236.318 8.85986 236.783 4.89502H228.143V2.78955H239.6ZM238.506 15.8599C243.455 15.8599 246.6 17.6919 246.6 20.6724C246.6 23.6802 243.455 25.5122 238.506 25.5122C233.584 25.5122 230.357 23.6802 230.385 20.6724C230.357 17.6919 233.584 15.8599 238.506 15.8599ZM238.506 17.9106C235.088 17.9106 232.928 18.9497 232.955 20.6724C232.928 22.395 235.088 23.4614 238.506 23.4614C241.896 23.4614 244.057 22.395 244.057 20.6724C244.057 18.9497 241.896 17.9106 238.506 17.9106ZM270.525 1.06689V8.94189H274.08V11.1021H270.525V19.3872H267.928V1.06689H270.525ZM265.904 3.91064V6.01611H251.303V3.91064H257.318V1.03955H259.916V3.91064H265.904ZM258.604 7.19189C262.131 7.19189 264.537 9.02393 264.537 11.813C264.537 14.6021 262.131 16.4067 258.604 16.4067C255.049 16.4067 252.643 14.6021 252.643 11.813C252.643 9.02393 255.049 7.19189 258.604 7.19189ZM258.604 9.18799C256.525 9.18799 255.131 10.1997 255.158 11.813C255.131 13.3989 256.525 14.3833 258.604 14.3833C260.682 14.3833 262.076 13.3989 262.104 11.813C262.076 10.1997 260.682 9.18799 258.604 9.18799ZM271.564 22.9146V25.02H254.994V17.938H257.592V22.9146H271.564ZM290.814 7.27393C290.787 11.6216 293.303 16.0513 296.967 17.8286L295.354 19.9067C292.688 18.5259 290.623 15.7778 289.557 12.4966C288.449 15.9966 286.303 18.9224 283.514 20.3716L281.9 18.2661C285.674 16.4614 288.217 11.7583 288.217 7.27393V3.09033H290.814V7.27393ZM301.396 1.03955V10.8013H305.334V13.0161H301.396V25.5396H298.799V1.03955H301.396ZM320.154 3.66455V5.16846C320.154 7.21924 320.154 10.3911 319.443 14.7661L316.873 14.5747C317.488 10.6509 317.557 7.8208 317.584 5.77002H307.631V3.66455H320.154ZM313.865 10.6646V17.9927C316.477 17.9106 319.129 17.7329 321.576 17.4185L321.713 19.3599C316.6 20.1802 310.912 20.2896 306.564 20.2622L306.264 18.1567C307.795 18.1431 309.504 18.1294 311.295 18.0747V10.6646H313.865ZM325.596 1.03955V11.1567H329.342V13.3716H325.596V25.5396H322.971V1.03955H325.596ZM343.123 3.19971V14.6294H331.666V3.19971H343.123ZM334.209 5.30518V12.5786H340.58V5.30518H334.209ZM349.959 1.01221V8.34033H353.514V10.5278H349.959V18.9771H347.361V1.01221H349.959ZM350.998 22.9146V25.02H334.428V17.2544H337.025V22.9146H350.998ZM366.064 1.44971C371.588 1.44971 374.814 2.92627 374.814 5.66064C374.814 8.39502 371.588 9.89893 366.064 9.89893C360.541 9.89893 357.314 8.39502 357.314 5.66064C357.314 2.92627 360.541 1.44971 366.064 1.44971ZM366.064 3.36377C362.154 3.36377 359.994 4.21143 360.021 5.66064C359.994 7.16455 362.154 7.95752 366.064 7.95752C369.975 7.95752 372.135 7.16455 372.135 5.66064C372.135 4.21143 369.975 3.36377 366.064 3.36377ZM377.248 11.4028V13.481H354.908V11.4028H377.248ZM374.432 15.3677V21.1099H360.158V23.2974H375.115V25.2935H357.615V19.2231H371.861V17.3091H357.588V15.3677H374.432ZM406.971 1.03955V25.5396H404.482V1.03955H406.971ZM401.994 1.55908V24.3091H399.533V11.8403H395.732V9.70752H399.533V1.55908H401.994ZM393.326 7.87549C393.326 12.0591 395.021 16.2427 398.467 18.2388L396.908 20.1528C394.57 18.7583 392.957 16.2837 392.123 13.3169C391.234 16.5161 389.566 19.2368 387.174 20.7271L385.588 18.7856C389.061 16.6802 390.838 12.2231 390.838 7.87549V5.90674H386.326V3.80127H397.537V5.90674H393.326V7.87549ZM421.189 16.4341C426.494 16.4341 429.83 18.1021 429.857 20.9731C429.83 23.8169 426.494 25.5122 421.189 25.4849C415.939 25.5122 412.576 23.8169 412.576 20.9731C412.576 18.1021 415.939 16.4341 421.189 16.4341ZM421.189 18.4028C417.471 18.4028 415.146 19.3599 415.174 20.9731C415.146 22.5591 417.471 23.4888 421.189 23.4888C424.936 23.4888 427.26 22.5591 427.287 20.9731C427.26 19.3599 424.936 18.4028 421.189 18.4028ZM429.666 2.24268V4.29346C429.666 6.26221 429.666 8.28564 428.982 10.8013L426.439 10.5278C427.096 8.02588 427.096 6.22119 427.096 4.3208H412.768V2.24268H429.666ZM432.455 12.3052V14.4106H410.17V12.3052H419.111V7.71143H421.654V12.3052H432.455ZM453.592 1.03955V7.19189H457.146V9.37939H453.592V15.313H450.994V1.03955H453.592ZM440.494 16.3247V18.7036H450.994V16.3247H453.592V25.2388H437.924V16.3247H440.494ZM440.494 23.1606H450.994V20.7271H440.494V23.1606ZM448.971 3.4458V5.52393H434.369V3.4458H440.385V0.820801H442.982V3.4458H448.971ZM441.67 6.53564C445.197 6.53564 447.604 8.20361 447.604 10.8286C447.604 13.4263 445.197 15.1489 441.67 15.1216C438.088 15.1489 435.709 13.4263 435.709 10.8286C435.709 8.20361 438.088 6.53564 441.67 6.53564ZM441.67 8.47705C439.592 8.44971 438.197 9.40674 438.225 10.8286C438.197 12.2778 439.592 13.2075 441.67 13.2075C443.748 13.2075 445.143 12.2778 445.17 10.8286C445.143 9.40674 443.748 8.44971 441.67 8.47705ZM478.885 1.03955V25.5396H476.287V1.03955H478.885ZM462.615 3.41846V17.063C466.184 17.0356 469.943 16.7485 473.881 15.9419L474.236 18.1294C469.889 19.0044 465.951 19.3052 462.096 19.3052H460.045V3.41846H462.615ZM501.826 1.03955V10.5278H505.764V12.6606H501.826V25.5942H499.229V1.03955H501.826ZM495.236 3.39111V5.49658H486.377V17.3364C490.492 17.3228 493.582 17.145 497.068 16.5161L497.396 18.7036C493.568 19.3872 490.314 19.5239 485.748 19.4966H483.779V3.39111H495.236ZM509.729 23.4067C508.662 23.4067 507.76 22.5317 507.787 21.4653C507.76 20.3989 508.662 19.5239 509.729 19.5239C510.768 19.5239 511.67 20.3989 511.67 21.4653C511.67 22.5317 510.768 23.4067 509.729 23.4067ZM531.686 3.4458L529.498 10.9927H527.174L528.623 3.4458H531.686ZM526.189 3.4458L524.002 10.9927H521.678L523.127 3.4458H526.189Z" fill="#271300"/>
</svg>
